<mxfile host="app.diagrams.net" agent="Mozilla/5.0 (Macintosh; Intel Mac OS X 10_15_7) AppleWebKit/537.36 (KHTML, like Gecko) Chrome/128.0.0.0 Safari/537.36" version="24.7.8">
  <diagram name="Page-1" id="QO9kfjvtr2IXJ8qPtRbW">
    <mxGraphModel dx="954" dy="489" grid="1" gridSize="10" guides="1" tooltips="1" connect="1" arrows="1" fold="1" page="1" pageScale="1" pageWidth="850" pageHeight="1100" math="0" shadow="0">
      <root>
        <mxCell id="0" />
        <mxCell id="1" parent="0" />
        <mxCell id="TUoBiHnFGuiqf3j-x5mC-1" value="HDFS Client" style="rounded=0;whiteSpace=wrap;html=1;" vertex="1" parent="1">
          <mxGeometry x="40" y="160" width="120" height="60" as="geometry" />
        </mxCell>
        <mxCell id="TUoBiHnFGuiqf3j-x5mC-2" value="Name Node" style="rounded=0;whiteSpace=wrap;html=1;" vertex="1" parent="1">
          <mxGeometry x="220" y="160" width="120" height="60" as="geometry" />
        </mxCell>
        <mxCell id="TUoBiHnFGuiqf3j-x5mC-3" value="Secondary Name Node" style="rounded=0;whiteSpace=wrap;html=1;" vertex="1" parent="1">
          <mxGeometry x="390" y="160" width="120" height="60" as="geometry" />
        </mxCell>
        <mxCell id="TUoBiHnFGuiqf3j-x5mC-4" value="Data Node" style="rounded=0;whiteSpace=wrap;html=1;" vertex="1" parent="1">
          <mxGeometry x="40" y="340" width="120" height="60" as="geometry" />
        </mxCell>
        <mxCell id="TUoBiHnFGuiqf3j-x5mC-5" value="Data Node" style="rounded=0;whiteSpace=wrap;html=1;" vertex="1" parent="1">
          <mxGeometry x="220" y="340" width="120" height="60" as="geometry" />
        </mxCell>
        <mxCell id="TUoBiHnFGuiqf3j-x5mC-6" value="Data Node" style="rounded=0;whiteSpace=wrap;html=1;" vertex="1" parent="1">
          <mxGeometry x="400" y="340" width="120" height="60" as="geometry" />
        </mxCell>
        <mxCell id="TUoBiHnFGuiqf3j-x5mC-7" value="Local&lt;br&gt;Disk" style="shape=cylinder3;whiteSpace=wrap;html=1;boundedLbl=1;backgroundOutline=1;size=15;" vertex="1" parent="1">
          <mxGeometry x="60" y="460" width="60" height="80" as="geometry" />
        </mxCell>
        <mxCell id="TUoBiHnFGuiqf3j-x5mC-8" value="Local&lt;br&gt;Disk" style="shape=cylinder3;whiteSpace=wrap;html=1;boundedLbl=1;backgroundOutline=1;size=15;" vertex="1" parent="1">
          <mxGeometry x="250" y="460" width="60" height="80" as="geometry" />
        </mxCell>
        <mxCell id="TUoBiHnFGuiqf3j-x5mC-9" value="Local&lt;br&gt;Disk" style="shape=cylinder3;whiteSpace=wrap;html=1;boundedLbl=1;backgroundOutline=1;size=15;" vertex="1" parent="1">
          <mxGeometry x="430" y="460" width="60" height="80" as="geometry" />
        </mxCell>
        <mxCell id="TUoBiHnFGuiqf3j-x5mC-10" value="" style="endArrow=classic;startArrow=none;html=1;rounded=0;exitX=1;exitY=0.5;exitDx=0;exitDy=0;startFill=0;" edge="1" parent="1" source="TUoBiHnFGuiqf3j-x5mC-1" target="TUoBiHnFGuiqf3j-x5mC-2">
          <mxGeometry width="50" height="50" relative="1" as="geometry">
            <mxPoint x="400" y="320" as="sourcePoint" />
            <mxPoint x="450" y="270" as="targetPoint" />
          </mxGeometry>
        </mxCell>
        <mxCell id="TUoBiHnFGuiqf3j-x5mC-11" value="" style="endArrow=classic;startArrow=classic;html=1;rounded=0;exitX=1;exitY=0.5;exitDx=0;exitDy=0;entryX=0;entryY=0.5;entryDx=0;entryDy=0;" edge="1" parent="1" source="TUoBiHnFGuiqf3j-x5mC-2" target="TUoBiHnFGuiqf3j-x5mC-3">
          <mxGeometry width="50" height="50" relative="1" as="geometry">
            <mxPoint x="400" y="320" as="sourcePoint" />
            <mxPoint x="450" y="270" as="targetPoint" />
          </mxGeometry>
        </mxCell>
        <mxCell id="TUoBiHnFGuiqf3j-x5mC-12" value="" style="endArrow=none;startArrow=classic;html=1;rounded=0;exitX=0.5;exitY=0;exitDx=0;exitDy=0;entryX=0.5;entryY=1;entryDx=0;entryDy=0;startFill=1;endFill=0;" edge="1" parent="1" source="TUoBiHnFGuiqf3j-x5mC-4" target="TUoBiHnFGuiqf3j-x5mC-2">
          <mxGeometry width="50" height="50" relative="1" as="geometry">
            <mxPoint x="400" y="320" as="sourcePoint" />
            <mxPoint x="450" y="270" as="targetPoint" />
          </mxGeometry>
        </mxCell>
        <mxCell id="TUoBiHnFGuiqf3j-x5mC-13" value="" style="endArrow=classic;html=1;rounded=0;exitX=0.5;exitY=1;exitDx=0;exitDy=0;entryX=0.5;entryY=0;entryDx=0;entryDy=0;" edge="1" parent="1" source="TUoBiHnFGuiqf3j-x5mC-2" target="TUoBiHnFGuiqf3j-x5mC-5">
          <mxGeometry width="50" height="50" relative="1" as="geometry">
            <mxPoint x="400" y="320" as="sourcePoint" />
            <mxPoint x="450" y="270" as="targetPoint" />
          </mxGeometry>
        </mxCell>
        <mxCell id="TUoBiHnFGuiqf3j-x5mC-14" value="" style="endArrow=classic;html=1;rounded=0;entryX=0.5;entryY=0;entryDx=0;entryDy=0;" edge="1" parent="1" target="TUoBiHnFGuiqf3j-x5mC-6">
          <mxGeometry width="50" height="50" relative="1" as="geometry">
            <mxPoint x="280" y="220" as="sourcePoint" />
            <mxPoint x="450" y="270" as="targetPoint" />
          </mxGeometry>
        </mxCell>
        <mxCell id="TUoBiHnFGuiqf3j-x5mC-15" value="" style="endArrow=classic;startArrow=classic;html=1;rounded=0;exitX=0.45;exitY=1.017;exitDx=0;exitDy=0;exitPerimeter=0;" edge="1" parent="1" source="TUoBiHnFGuiqf3j-x5mC-4" target="TUoBiHnFGuiqf3j-x5mC-7">
          <mxGeometry width="50" height="50" relative="1" as="geometry">
            <mxPoint x="400" y="320" as="sourcePoint" />
            <mxPoint x="150" y="470" as="targetPoint" />
          </mxGeometry>
        </mxCell>
        <mxCell id="TUoBiHnFGuiqf3j-x5mC-16" value="" style="endArrow=classic;startArrow=classic;html=1;rounded=0;exitX=0.5;exitY=1;exitDx=0;exitDy=0;" edge="1" parent="1" source="TUoBiHnFGuiqf3j-x5mC-5" target="TUoBiHnFGuiqf3j-x5mC-8">
          <mxGeometry width="50" height="50" relative="1" as="geometry">
            <mxPoint x="400" y="320" as="sourcePoint" />
            <mxPoint x="450" y="270" as="targetPoint" />
          </mxGeometry>
        </mxCell>
        <mxCell id="TUoBiHnFGuiqf3j-x5mC-17" value="" style="endArrow=classic;startArrow=classic;html=1;rounded=0;exitX=0.5;exitY=1;exitDx=0;exitDy=0;entryX=0.5;entryY=0;entryDx=0;entryDy=0;entryPerimeter=0;" edge="1" parent="1" source="TUoBiHnFGuiqf3j-x5mC-6" target="TUoBiHnFGuiqf3j-x5mC-9">
          <mxGeometry width="50" height="50" relative="1" as="geometry">
            <mxPoint x="400" y="320" as="sourcePoint" />
            <mxPoint x="450" y="270" as="targetPoint" />
          </mxGeometry>
        </mxCell>
        <mxCell id="TUoBiHnFGuiqf3j-x5mC-24" value="" style="group" vertex="1" connectable="0" parent="1">
          <mxGeometry x="50" y="380" width="100" height="56" as="geometry" />
        </mxCell>
        <mxCell id="TUoBiHnFGuiqf3j-x5mC-18" value="" style="rounded=0;whiteSpace=wrap;html=1;" vertex="1" parent="TUoBiHnFGuiqf3j-x5mC-24">
          <mxGeometry width="100" height="50" as="geometry" />
        </mxCell>
        <mxCell id="TUoBiHnFGuiqf3j-x5mC-19" value="" style="rounded=0;whiteSpace=wrap;html=1;" vertex="1" parent="TUoBiHnFGuiqf3j-x5mC-24">
          <mxGeometry x="10" y="10" width="20" height="20" as="geometry" />
        </mxCell>
        <mxCell id="TUoBiHnFGuiqf3j-x5mC-20" value="" style="rounded=0;whiteSpace=wrap;html=1;" vertex="1" parent="TUoBiHnFGuiqf3j-x5mC-24">
          <mxGeometry x="40" y="10" width="20" height="20" as="geometry" />
        </mxCell>
        <mxCell id="TUoBiHnFGuiqf3j-x5mC-21" value="" style="rounded=0;whiteSpace=wrap;html=1;" vertex="1" parent="TUoBiHnFGuiqf3j-x5mC-24">
          <mxGeometry x="70" y="10" width="20" height="20" as="geometry" />
        </mxCell>
        <mxCell id="TUoBiHnFGuiqf3j-x5mC-23" value="Blocks" style="text;html=1;align=center;verticalAlign=middle;whiteSpace=wrap;rounded=0;" vertex="1" parent="TUoBiHnFGuiqf3j-x5mC-24">
          <mxGeometry x="20" y="26" width="60" height="30" as="geometry" />
        </mxCell>
        <mxCell id="TUoBiHnFGuiqf3j-x5mC-25" value="" style="group" vertex="1" connectable="0" parent="1">
          <mxGeometry x="230" y="380" width="100" height="56" as="geometry" />
        </mxCell>
        <mxCell id="TUoBiHnFGuiqf3j-x5mC-26" value="" style="rounded=0;whiteSpace=wrap;html=1;" vertex="1" parent="TUoBiHnFGuiqf3j-x5mC-25">
          <mxGeometry width="100" height="50" as="geometry" />
        </mxCell>
        <mxCell id="TUoBiHnFGuiqf3j-x5mC-27" value="" style="rounded=0;whiteSpace=wrap;html=1;" vertex="1" parent="TUoBiHnFGuiqf3j-x5mC-25">
          <mxGeometry x="10" y="10" width="20" height="20" as="geometry" />
        </mxCell>
        <mxCell id="TUoBiHnFGuiqf3j-x5mC-28" value="" style="rounded=0;whiteSpace=wrap;html=1;" vertex="1" parent="TUoBiHnFGuiqf3j-x5mC-25">
          <mxGeometry x="40" y="10" width="20" height="20" as="geometry" />
        </mxCell>
        <mxCell id="TUoBiHnFGuiqf3j-x5mC-29" value="" style="rounded=0;whiteSpace=wrap;html=1;" vertex="1" parent="TUoBiHnFGuiqf3j-x5mC-25">
          <mxGeometry x="70" y="10" width="20" height="20" as="geometry" />
        </mxCell>
        <mxCell id="TUoBiHnFGuiqf3j-x5mC-30" value="Blocks" style="text;html=1;align=center;verticalAlign=middle;whiteSpace=wrap;rounded=0;" vertex="1" parent="TUoBiHnFGuiqf3j-x5mC-25">
          <mxGeometry x="20" y="26" width="60" height="30" as="geometry" />
        </mxCell>
        <mxCell id="TUoBiHnFGuiqf3j-x5mC-31" value="" style="group" vertex="1" connectable="0" parent="1">
          <mxGeometry x="410" y="380" width="100" height="56" as="geometry" />
        </mxCell>
        <mxCell id="TUoBiHnFGuiqf3j-x5mC-32" value="" style="rounded=0;whiteSpace=wrap;html=1;" vertex="1" parent="TUoBiHnFGuiqf3j-x5mC-31">
          <mxGeometry width="100" height="50" as="geometry" />
        </mxCell>
        <mxCell id="TUoBiHnFGuiqf3j-x5mC-33" value="" style="rounded=0;whiteSpace=wrap;html=1;" vertex="1" parent="TUoBiHnFGuiqf3j-x5mC-31">
          <mxGeometry x="10" y="10" width="20" height="20" as="geometry" />
        </mxCell>
        <mxCell id="TUoBiHnFGuiqf3j-x5mC-34" value="" style="rounded=0;whiteSpace=wrap;html=1;" vertex="1" parent="TUoBiHnFGuiqf3j-x5mC-31">
          <mxGeometry x="40" y="10" width="20" height="20" as="geometry" />
        </mxCell>
        <mxCell id="TUoBiHnFGuiqf3j-x5mC-35" value="" style="rounded=0;whiteSpace=wrap;html=1;" vertex="1" parent="TUoBiHnFGuiqf3j-x5mC-31">
          <mxGeometry x="70" y="10" width="20" height="20" as="geometry" />
        </mxCell>
        <mxCell id="TUoBiHnFGuiqf3j-x5mC-36" value="Blocks" style="text;html=1;align=center;verticalAlign=middle;whiteSpace=wrap;rounded=0;" vertex="1" parent="TUoBiHnFGuiqf3j-x5mC-31">
          <mxGeometry x="20" y="26" width="60" height="30" as="geometry" />
        </mxCell>
      </root>
    </mxGraphModel>
  </diagram>
</mxfile>
